<svg width="26" height="33" viewBox="0 0 26 33" fill="none" xmlns="http://www.w3.org/2000/svg">
<path fill-rule="evenodd" clip-rule="evenodd" d="M15.0101 2.48216C15.0109 3.02408 14.8338 3.55143 14.5056 3.98398C14.1774 4.41653 13.7161 4.7306 13.1919 4.87839C15.7802 5.05098 18.2058 6.19538 19.9776 8.07991C21.7495 9.96443 22.7352 12.4482 22.7351 15.0284V22.8275C22.7351 24.6495 22.8101 26.1211 24.3806 26.9033C24.6094 27.0174 24.7927 27.2049 24.901 27.4355C25.0093 27.6661 25.0362 27.9263 24.9773 28.174C24.9184 28.4217 24.7772 28.6423 24.5765 28.8002C24.3758 28.9582 24.1274 29.0441 23.8715 29.0441H14.0101C14.3563 29.3478 14.6013 29.7492 14.7125 30.1948C14.8237 30.6405 14.7958 31.1092 14.6326 31.5387C14.4694 31.9682 14.1785 32.3381 13.7988 32.5991C13.419 32.8602 12.9683 33 12.5067 33C12.045 33 11.5944 32.8602 11.2146 32.5991C10.8348 32.3381 10.544 31.9682 10.3808 31.5387C10.2175 31.1092 10.1897 30.6405 10.3009 30.1948C10.4121 29.7492 10.6571 29.3478 11.0033 29.0441H1.14411C0.888218 29.0441 0.639823 28.9582 0.43914 28.8002C0.238456 28.6423 0.0972304 28.4217 0.0383284 28.174C-0.0205736 27.9263 0.00629576 27.6661 0.114586 27.4355C0.222876 27.2049 0.406248 27.0174 0.635014 26.9033C2.20548 26.1211 2.28048 24.6495 2.28048 22.8275V15.0284C2.28047 12.4479 3.26648 9.96375 5.03882 8.07917C6.81115 6.1946 9.23733 5.05043 11.826 4.87839C11.3789 4.75188 10.9762 4.50392 10.663 4.16235C10.3498 3.82078 10.1385 3.39912 10.0529 2.94472C9.96724 2.49032 10.0107 2.02118 10.1783 1.58997C10.3459 1.15877 10.631 0.782574 11.0017 0.503633C11.3723 0.224692 11.8138 0.0540512 12.2766 0.0108713C12.7393 -0.0323086 13.2051 0.0536826 13.6214 0.259189C14.0377 0.464695 14.3883 0.781578 14.6336 1.17426C14.8789 1.56693 15.0093 2.01986 15.0101 2.48216ZM12.5078 7.11637C10.3981 7.11637 8.37484 7.94996 6.88307 9.43376C5.39129 10.9176 4.55322 12.93 4.55322 15.0284V22.9405C4.55322 23.9487 4.55549 25.4452 3.8714 26.7835H21.1442C20.4601 25.4452 20.4624 23.9487 20.4624 22.9405V15.0284C20.4624 12.93 19.6243 10.9176 18.1326 9.43376C16.6408 7.94996 14.6175 7.11637 12.5078 7.11637Z" fill="black"/>
</svg>
