<svg width="106" height="105" viewBox="0 0 106 105" fill="none" xmlns="http://www.w3.org/2000/svg">
<rect x="0.0078125" width="105" height="105" rx="14" fill="#3C454B"/>
<path d="M78.1078 48.4C77.7703 47.8375 74.4392 46.3986 74.4392 46.3986C75.0186 46.0994 75.4146 46.0375 75.4146 44.8C75.4146 43.45 75.4078 43 74.5078 43H71.4546C71.4422 42.973 71.4287 42.9449 71.4163 42.9167C69.4453 38.6125 69.1809 37.5246 66.2413 36.0599C62.2982 34.099 54.9058 34 52.0078 34C49.1098 34 41.7174 34.099 37.7777 36.0599C34.8347 37.5224 34.9078 38.275 32.6027 42.9167C32.6027 42.9291 32.5791 42.9618 32.5577 43H29.5011C28.6078 43 28.6011 43.45 28.6011 44.8C28.6011 46.0375 28.9971 46.0994 29.5764 46.3986C29.5764 46.3986 26.3578 47.95 25.9078 48.4C25.4578 48.85 25.0078 52 25.0078 57.4C25.0078 62.8 25.4578 68.2 25.4578 68.2H26.8011C26.8011 69.775 27.0328 70 27.7078 70H36.7078C37.3828 70 37.6078 69.775 37.6078 68.2H66.4078C66.4078 69.775 66.6328 70 67.3078 70H76.5328C76.9828 70 77.2078 69.6625 77.2078 68.2H78.5578C78.5578 68.2 79.0078 62.6875 79.0078 57.4C79.0078 52.1125 78.4453 48.9625 78.1078 48.4ZM37.2996 53.4557C35.2506 53.6797 33.1912 53.7947 31.1301 53.8C28.8328 53.8 28.7541 53.9474 28.5921 52.513C28.5311 51.8565 28.5504 51.195 28.6494 50.5431L28.7203 50.2H29.0578C30.4078 50.2 31.6757 50.2574 34.0697 50.9627C35.2873 51.3281 36.4326 51.9013 37.4548 52.657C37.9453 53.0125 38.0578 53.35 38.0578 53.35L37.2996 53.4557ZM65.1051 61.5557L64.6078 62.8H39.4078C39.4078 62.8 39.4517 62.7314 38.8453 61.5422C38.3953 60.6625 38.9578 60.1 39.8477 59.7805C41.5712 59.1595 46.6078 57.4 52.0078 57.4C57.4078 57.4 62.5446 58.9165 64.2141 59.7805C64.8328 60.1 65.6012 60.325 65.1051 61.5625V61.5557ZM36.1926 46.1961C35.8292 46.2171 35.465 46.2197 35.1013 46.204C35.3949 45.682 35.5581 45.1004 35.8449 44.4929C36.7449 42.5804 37.7743 40.4159 39.6069 39.5035C42.2552 38.185 47.7441 37.591 52.0078 37.591C56.2716 37.591 61.7604 38.1805 64.4087 39.5035C66.2413 40.4159 67.2662 42.5815 68.1707 44.4929C68.4598 45.106 68.6207 45.6921 68.9222 46.2175C68.6972 46.2299 68.4384 46.2175 67.8208 46.1961H36.1926ZM75.3111 52.5085C75.0703 53.9125 75.2953 53.8 72.8856 53.8C70.8244 53.7947 68.765 53.6797 66.7161 53.4557C66.3954 53.3984 66.3043 52.8572 66.5608 52.657C67.5779 51.8929 68.7247 51.3189 69.9459 50.9627C72.3399 50.2574 73.6877 50.1629 75.0186 50.2101C75.108 50.2135 75.1929 50.2499 75.2571 50.3122C75.3213 50.3745 75.3601 50.4584 75.3662 50.5476C75.4298 51.2025 75.4113 51.8627 75.3111 52.513V52.5085Z" fill="white"/>
</svg>
