<svg width="22" height="22" viewBox="0 0 22 22" fill="none" xmlns="http://www.w3.org/2000/svg">
<path fill-rule="evenodd" clip-rule="evenodd" d="M10.9974 2.521C8.84579 2.521 7.10156 4.26522 7.10156 6.41683C7.10156 8.56844 8.84579 10.3127 10.9974 10.3127C13.149 10.3127 14.8932 8.56844 14.8932 6.41683C14.8932 4.26522 13.149 2.521 10.9974 2.521ZM5.72656 6.41683C5.72656 3.50583 8.0864 1.146 10.9974 1.146C13.9084 1.146 16.2682 3.50583 16.2682 6.41683C16.2682 9.32783 13.9084 11.6877 10.9974 11.6877C8.0864 11.6877 5.72656 9.32783 5.72656 6.41683Z" fill="white"/>
<path fill-rule="evenodd" clip-rule="evenodd" d="M2.4375 20.1667C2.4375 16.1142 6.4132 13.0625 10.9992 13.0625C15.5851 13.0625 19.5608 16.1142 19.5608 20.1667C19.5608 20.5464 19.253 20.8542 18.8733 20.8542C18.4936 20.8542 18.1858 20.5464 18.1858 20.1667C18.1858 17.1241 15.1032 14.4375 10.9992 14.4375C6.89513 14.4375 3.8125 17.1241 3.8125 20.1667C3.8125 20.5464 3.5047 20.8542 3.125 20.8542C2.7453 20.8542 2.4375 20.5464 2.4375 20.1667Z" fill="white"/>
</svg>
