<svg width="60" height="60" viewBox="0 0 60 60" fill="none" xmlns="http://www.w3.org/2000/svg">
<g filter="url(#filter0_d_18_781)">
<rect x="6" y="2" width="48" height="48" rx="24" fill="white" shape-rendering="crispEdges"/>
<path fill-rule="evenodd" clip-rule="evenodd" d="M23.8307 23.168C23.8307 19.7541 26.6043 16.9805 30.0182 16.9805C33.4229 16.9805 36.2057 19.7633 36.2057 23.168V25.8171C36.2057 26.0141 36.2502 26.3024 36.3347 26.6104C36.4182 26.9147 36.526 27.1852 36.6241 27.3569L37.6752 29.1026C38.5053 30.4861 37.8417 32.2883 36.3125 32.7945C32.2205 34.1614 27.8055 34.1613 23.7136 32.7942L23.7111 32.7933C22.9389 32.532 22.3598 31.9916 22.1008 31.2923C21.8416 30.5922 21.9298 29.8042 22.3524 29.1019L23.4051 27.3534C23.4054 27.353 23.4056 27.3526 23.4058 27.3523C23.5062 27.1835 23.6162 26.914 23.701 26.6083C23.7861 26.3017 23.8307 26.0139 23.8307 25.8171V23.168ZM30.0182 18.3555C27.3637 18.3555 25.2057 20.5135 25.2057 23.168V25.8171C25.2057 26.1796 25.131 26.5975 25.0259 26.9761C24.9208 27.3549 24.7698 27.7495 24.5862 28.0575L24.5846 28.0601L23.5306 29.8108C23.5305 29.8108 23.5306 29.8107 23.5306 29.8108C23.3025 30.19 23.2897 30.5433 23.3903 30.8149C23.491 31.087 23.732 31.3484 24.1507 31.4905C27.9597 32.7628 32.0688 32.7627 35.8778 31.4901L35.8799 31.4894C36.5681 31.2619 36.8757 30.4433 36.4964 29.8105C36.4963 29.8103 36.4965 29.8107 36.4964 29.8105L35.4359 28.0491C35.2598 27.7439 35.1123 27.352 35.0087 26.9741C34.9052 26.5969 34.8307 26.1793 34.8307 25.8171V23.168C34.8307 20.5227 32.6635 18.3555 30.0182 18.3555Z" fill="black"/>
<path fill-rule="evenodd" clip-rule="evenodd" d="M27.6822 17.6825C28.0483 16.7481 28.9574 16.0908 30.0181 16.0908C31.0788 16.0908 31.9879 16.7481 32.354 17.6825C32.4496 17.9264 32.3983 18.2034 32.2217 18.3969C32.0451 18.5903 31.7738 18.6666 31.5223 18.5936C31.268 18.5197 31.0113 18.464 30.7512 18.4325L30.7487 18.4322C29.9563 18.3331 29.2076 18.3919 28.5142 18.5935C28.2626 18.6666 27.9913 18.5904 27.8146 18.3969C27.6379 18.2035 27.5866 17.9264 27.6822 17.6825Z" fill="black"/>
<path fill-rule="evenodd" clip-rule="evenodd" d="M27.9561 32.4717C27.9561 33.0332 28.1896 33.5571 28.5614 33.9289C28.9331 34.3006 29.4571 34.5342 30.0186 34.5342C31.1514 34.5342 32.0811 33.6045 32.0811 32.4717H33.4561C33.4561 34.3639 31.9108 35.9092 30.0186 35.9092C29.0767 35.9092 28.2074 35.5194 27.5891 34.9011C26.9708 34.2829 26.5811 33.4135 26.5811 32.4717H27.9561Z" fill="black"/>
</g>
<defs>
<filter id="filter0_d_18_781" x="0" y="0" width="60" height="60" filterUnits="userSpaceOnUse" color-interpolation-filters="sRGB">
<feFlood flood-opacity="0" result="BackgroundImageFix"/>
<feColorMatrix in="SourceAlpha" type="matrix" values="0 0 0 0 0 0 0 0 0 0 0 0 0 0 0 0 0 0 127 0" result="hardAlpha"/>
<feOffset dy="4"/>
<feGaussianBlur stdDeviation="3"/>
<feComposite in2="hardAlpha" operator="out"/>
<feColorMatrix type="matrix" values="0 0 0 0 0 0 0 0 0 0 0 0 0 0 0 0 0 0 0.02 0"/>
<feBlend mode="normal" in2="BackgroundImageFix" result="effect1_dropShadow_18_781"/>
<feBlend mode="normal" in="SourceGraphic" in2="effect1_dropShadow_18_781" result="shape"/>
</filter>
</defs>
</svg>
