<svg width="49" height="49" viewBox="0 0 49 49" fill="none" xmlns="http://www.w3.org/2000/svg">
<rect width="49" height="49" rx="24.5" fill="white"/>
<path fill-rule="evenodd" clip-rule="evenodd" d="M24.4999 11.5293C25.2958 11.5293 25.9411 12.1745 25.9411 12.9705V23.0587H36.0293C36.8252 23.0587 37.4705 23.7039 37.4705 24.4999C37.4705 25.2958 36.8252 25.9411 36.0293 25.9411H25.9411V36.0293C25.9411 36.8252 25.2958 37.4705 24.4999 37.4705C23.7039 37.4705 23.0587 36.8252 23.0587 36.0293V25.9411H12.9705C12.1745 25.9411 11.5293 25.2958 11.5293 24.4999C11.5293 23.7039 12.1745 23.0587 12.9705 23.0587H23.0587V12.9705C23.0587 12.1745 23.7039 11.5293 24.4999 11.5293Z" fill="black"/>
</svg>
