<svg width="18" height="18" viewBox="0 0 18 18" fill="none" xmlns="http://www.w3.org/2000/svg">
<path d="M7.19671 4.44495e-08C6.05145 -0.000122309 4.92271 0.27311 3.90429 0.796985C2.88588 1.32086 2.00722 2.08025 1.34133 3.01203C0.675451 3.9438 0.241585 5.02106 0.0757976 6.15425C-0.0899898 7.28745 0.0170903 8.44384 0.388138 9.52733C0.759185 10.6108 1.38348 11.5901 2.20914 12.3837C3.03479 13.1774 4.03796 13.7625 5.13525 14.0905C6.23254 14.4185 7.39226 14.4798 8.51802 14.2694C9.64378 14.059 10.7031 13.5829 11.6078 12.8807L16.4543 17.7254C16.5373 17.8113 16.6365 17.8798 16.7463 17.927C16.856 17.9741 16.974 17.9989 17.0935 18C17.2129 18.001 17.3313 17.9782 17.4419 17.933C17.5524 17.8878 17.6529 17.821 17.7373 17.7365C17.8218 17.6521 17.8886 17.5517 17.9338 17.4411C17.979 17.3306 18.0018 17.2121 18.0007 17.0927C17.9997 16.9733 17.9749 16.8552 17.9277 16.7455C17.8806 16.6357 17.8121 16.5365 17.7262 16.4535L12.8815 11.6088C13.7073 10.5452 14.2181 9.27109 14.3558 7.93151C14.4934 6.59194 14.2524 5.24061 13.6602 4.03121C13.0679 2.8218 12.1482 1.80284 11.0056 1.09021C9.86299 0.37757 8.54334 -0.000149604 7.19671 4.44495e-08ZM1.79975 7.19594C1.79975 5.76458 2.36836 4.39184 3.38049 3.37972C4.39261 2.36759 5.76535 1.79898 7.19671 1.79898C8.62807 1.79898 10.0008 2.36759 11.0129 3.37972C12.0251 4.39184 12.5937 5.76458 12.5937 7.19594C12.5937 8.6273 12.0251 10 11.0129 11.0122C10.0008 12.0243 8.62807 12.5929 7.19671 12.5929C5.76535 12.5929 4.39261 12.0243 3.38049 11.0122C2.36836 10 1.79975 8.6273 1.79975 7.19594Z" fill="#1D1D1D"/>
</svg>
