<svg width="46" height="46" viewBox="0 0 46 46" fill="none" xmlns="http://www.w3.org/2000/svg">
<rect width="46" height="46" rx="23" fill="#F0C274"/>
<path fill-rule="evenodd" clip-rule="evenodd" d="M22.9974 14.521C20.8458 14.521 19.1016 16.2652 19.1016 18.4168C19.1016 20.5684 20.8458 22.3127 22.9974 22.3127C25.149 22.3127 26.8932 20.5684 26.8932 18.4168C26.8932 16.2652 25.149 14.521 22.9974 14.521ZM17.7266 18.4168C17.7266 15.5058 20.0864 13.146 22.9974 13.146C25.9084 13.146 28.2682 15.5058 28.2682 18.4168C28.2682 21.3278 25.9084 23.6877 22.9974 23.6877C20.0864 23.6877 17.7266 21.3278 17.7266 18.4168Z" fill="white"/>
<path fill-rule="evenodd" clip-rule="evenodd" d="M14.4375 32.1667C14.4375 28.1142 18.4132 25.0625 22.9992 25.0625C27.5851 25.0625 31.5608 28.1142 31.5608 32.1667C31.5608 32.5464 31.253 32.8542 30.8733 32.8542C30.4936 32.8542 30.1858 32.5464 30.1858 32.1667C30.1858 29.1241 27.1032 26.4375 22.9992 26.4375C18.8951 26.4375 15.8125 29.1241 15.8125 32.1667C15.8125 32.5464 15.5047 32.8542 15.125 32.8542C14.7453 32.8542 14.4375 32.5464 14.4375 32.1667Z" fill="white"/>
</svg>
