<svg width="46" height="46" viewBox="0 0 46 46" fill="none" xmlns="http://www.w3.org/2000/svg">
<rect width="46" height="46" rx="23" fill="#70A1E6"/>
<path fill-rule="evenodd" clip-rule="evenodd" d="M22.9987 14.521C18.3184 14.521 14.5195 18.3199 14.5195 23.0002C14.5195 27.6805 18.3184 31.4793 22.9987 31.4793C27.679 31.4793 31.4779 27.6805 31.4779 23.0002C31.4779 18.3199 27.679 14.521 22.9987 14.521ZM13.1445 23.0002C13.1445 17.5605 17.559 13.146 22.9987 13.146C28.4384 13.146 32.8529 17.5605 32.8529 23.0002C32.8529 28.4399 28.4384 32.8543 22.9987 32.8543C17.559 32.8543 13.1445 28.4399 13.1445 23.0002Z" fill="#F1F1F1"/>
<path fill-rule="evenodd" clip-rule="evenodd" d="M22.6602 18.1968C23.0399 18.1968 23.3477 18.5046 23.3477 18.8843V22.6426C23.3477 22.7834 23.4014 22.9874 23.5209 23.1969C23.6404 23.4065 23.7886 23.5565 23.909 23.6278L23.9108 23.6289L23.9108 23.6289L26.7525 25.3247C27.0785 25.5193 27.1851 25.9414 26.9905 26.2674C26.7959 26.5935 26.3739 26.7001 26.0478 26.5055L23.208 24.8107C23.2077 24.8105 23.2074 24.8104 23.207 24.8102C22.8329 24.5882 22.5322 24.2388 22.3265 23.8781C22.1206 23.517 21.9727 23.0794 21.9727 22.6426V18.8843C21.9727 18.5046 22.2805 18.1968 22.6602 18.1968Z" fill="#F1F1F1"/>
</svg>
