<svg width="47" height="46" viewBox="0 0 47 46" fill="none" xmlns="http://www.w3.org/2000/svg">
<rect x="0.5" width="46" height="46" rx="23" fill="#E89271"/>
<path d="M34.716 21.2041C34.5681 20.9577 33.1088 20.3273 33.1088 20.3273C33.3626 20.1962 33.5361 20.1691 33.5361 19.6269C33.5361 19.0355 33.5331 18.8384 33.1388 18.8384H31.8012C31.7958 18.8265 31.7899 18.8142 31.7845 18.8019C30.921 16.9162 30.8052 16.4396 29.5173 15.7979C27.7899 14.9389 24.5513 14.8955 23.2817 14.8955C22.0121 14.8955 18.7735 14.9389 17.0475 15.7979C15.7582 16.4386 15.7903 16.7684 14.7804 18.8019C14.7804 18.8073 14.7701 18.8216 14.7607 18.8384H13.4216C13.0303 18.8384 13.0273 19.0355 13.0273 19.6269C13.0273 20.1691 13.2008 20.1962 13.4546 20.3273C13.4546 20.3273 12.0446 21.0069 11.8474 21.2041C11.6503 21.4012 11.4531 22.7812 11.4531 25.1469C11.4531 27.5127 11.6503 29.8784 11.6503 29.8784H12.2387C12.2387 30.5684 12.3403 30.6669 12.636 30.6669H16.5788C16.8746 30.6669 16.9731 30.5684 16.9731 29.8784H29.5903C29.5903 30.5684 29.6888 30.6669 29.9846 30.6669H34.026C34.2231 30.6669 34.3217 30.5191 34.3217 29.8784H34.9131C34.9131 29.8784 35.1103 27.4634 35.1103 25.1469C35.1103 22.8305 34.8638 21.4505 34.716 21.2041ZM16.8381 23.419C15.9404 23.5171 15.0382 23.5675 14.1353 23.5698C13.1288 23.5698 13.0943 23.6344 13.0234 23.006C12.9967 22.7183 13.0051 22.4285 13.0485 22.143L13.0796 21.9927H13.2274C13.8188 21.9927 14.3743 22.0178 15.4231 22.3268C15.9565 22.4869 16.4583 22.738 16.9061 23.0691C17.121 23.2248 17.1703 23.3727 17.1703 23.3727L16.8381 23.419ZM29.0195 26.9676L28.8017 27.5127H17.7617C17.7617 27.5127 17.7809 27.4826 17.5153 26.9616C17.3181 26.5762 17.5646 26.3298 17.9544 26.1898C18.7095 25.9178 20.916 25.1469 23.2817 25.1469C25.6474 25.1469 27.8978 25.8113 28.6292 26.1898C28.9003 26.3298 29.2369 26.4284 29.0195 26.9705V26.9676ZM16.3531 20.2386C16.1939 20.2478 16.0344 20.2489 15.875 20.242C16.0037 20.0133 16.0751 19.7585 16.2008 19.4924C16.5951 18.6545 17.0461 17.7063 17.8489 17.3066C19.0091 16.7289 21.4138 16.4687 23.2817 16.4687C25.1496 16.4687 27.5543 16.727 28.7145 17.3066C29.5173 17.7063 29.9663 18.655 30.3626 19.4924C30.4892 19.761 30.5597 20.0178 30.6918 20.2479C30.5932 20.2534 30.4799 20.2479 30.2093 20.2386H16.3531ZM33.4907 23.004C33.3853 23.6191 33.4838 23.5698 32.4281 23.5698C31.5252 23.5675 30.6229 23.5171 29.7253 23.419C29.5848 23.3938 29.5449 23.1568 29.6573 23.0691C30.1029 22.7343 30.6053 22.4828 31.1403 22.3268C32.1891 22.0178 32.7795 21.9764 33.3626 21.9971C33.4018 21.9986 33.439 22.0145 33.4671 22.0418C33.4952 22.0691 33.5122 22.1058 33.5149 22.1449C33.5427 22.4318 33.5346 22.7211 33.4907 23.006V23.004Z" fill="white"/>
</svg>
