<svg width="100" height="100" viewBox="0 0 100 100" fill="none" xmlns="http://www.w3.org/2000/svg">
<circle cx="50" cy="50" r="50" fill="#EDEDED"/>
<path d="M64.4 39.5789C65.444 39.5789 66.29 39.9579 66.956 40.6968C67.64 41.4737 68 42.3263 68 43.3684V64.2105C68 65.2526 67.64 66.1053 66.956 66.8821C66.29 67.6211 65.444 68 64.4 68H35.6C34.556 68 33.71 67.6211 33.044 66.8821C32.36 66.1053 32 65.2526 32 64.2105V43.3684C32 42.3263 32.36 41.4737 33.044 40.6968C33.71 39.9579 34.556 39.5789 35.6 39.5789H42.8V35.7895C42.8 34.6905 43.16 33.8 43.844 33.0989C44.51 32.3789 45.356 32 46.4 32H53.6C54.644 32 55.49 32.3789 56.156 33.0989C56.84 33.8 57.2 34.6905 57.2 35.7895V39.5789H64.4ZM35.6 43.3684V64.2105H64.4V43.3684H35.6ZM53.6 39.5789V35.7895H46.4V39.5789H53.6Z" fill="black"/>
</svg>
