<svg width="100" height="100" viewBox="0 0 100 100" fill="none" xmlns="http://www.w3.org/2000/svg">
<circle cx="50" cy="50" r="50" fill="#EDEDED"/>
<path d="M58.372 32C59.3862 32 60.3847 32.259 61.2785 32.7541C62.1723 33.2492 62.9338 33.965 63.4949 34.8376L63.7102 35.2019L67.7979 42.5882H70.18C70.369 42.5882 70.5523 42.6556 70.6987 42.7791C70.8452 42.9026 70.9458 43.0746 70.9836 43.2659L71 43.4353V44.4412C71.0002 44.7796 70.9023 45.1104 70.7189 45.3908C70.5355 45.6713 70.275 45.8885 69.9709 46.0146L69.7085 46.0993C70.4767 47.7472 70.8185 49.5726 70.7007 51.3976L70.6453 52.0054L69.1591 64.2899C69.0422 65.2573 68.6057 66.1535 67.9234 66.8271C67.241 67.5007 66.3546 67.9105 65.4137 67.9873L65.0899 68H62.8C61.7656 68.0003 60.7693 67.5968 60.0109 66.8702C59.2524 66.1437 58.7878 65.1479 58.7102 64.0823L58.7 63.7647H42.3C42.3003 64.8332 41.9097 65.8624 41.2063 66.6459C40.503 67.4294 39.539 67.9093 38.5075 67.9894L38.2 68H35.9101C34.9661 68.0006 34.0508 67.6647 33.3188 67.0489C32.5868 66.4332 32.0828 65.5753 31.8922 64.6202L31.8409 64.2899L30.3547 52.0075C30.135 50.1908 30.3752 48.3463 31.0517 46.6541L31.2915 46.0972L31.2423 46.0866C30.9242 46.0046 30.6372 45.826 30.4183 45.5739C30.1994 45.3217 30.0587 45.0076 30.0143 44.672L30 44.4412V43.4353C30 43.24 30.0652 43.0507 30.1848 42.8995C30.3043 42.7482 30.4708 42.6442 30.656 42.6052L30.82 42.5882H33.2041L37.2898 35.2019C37.7931 34.292 38.5064 33.5248 39.3663 32.9688C40.2261 32.4127 41.2058 32.085 42.218 32.0148L42.628 32H58.372ZM66.408 49.0174C65.348 50.2174 63.8776 50.9442 62.308 51.044L61.8857 51.0588H39.1143C38.2645 51.0645 37.423 50.8857 36.6443 50.5341C35.8656 50.1824 35.1671 49.6657 34.5941 49.0174C34.4248 49.6571 34.3536 50.3202 34.3829 50.9826L34.4239 51.4802L35.9101 63.7647H38.2V61.6471C38.2001 61.1284 38.3844 60.6278 38.7181 60.2402C39.0517 59.8525 39.5115 59.6049 40.0101 59.5442L40.25 59.5294H60.75C61.2521 59.5295 61.7367 59.7199 62.112 60.0646C62.4872 60.4092 62.7269 60.8842 62.7856 61.3993L62.8 61.6471V63.7647H65.0899L66.5761 51.4802C66.6786 50.6501 66.6192 49.8136 66.408 49.0174ZM37.6608 52.9605L43.284 56.0988C44.0486 56.5266 43.7309 57.7273 42.8617 57.6913L38.118 57.4944C37.589 57.4725 37.0887 57.24 36.7219 56.8457C36.355 56.4514 36.1501 55.9257 36.15 55.3788V53.8965C36.1499 53.713 36.1959 53.5327 36.2836 53.3732C36.3713 53.2136 36.4976 53.0804 36.6501 52.9864C36.8026 52.8925 36.9762 52.8411 37.1537 52.8373C37.3313 52.8335 37.5067 52.8774 37.6629 52.9647L37.6608 52.9605ZM64.8479 53.8922V55.3767C64.8484 55.924 64.6437 56.4501 64.2768 56.8449C63.9099 57.2397 63.4093 57.4725 62.8799 57.4944L58.1362 57.6892C57.267 57.7252 56.9472 56.5245 57.7139 56.0967L63.335 52.9626C63.4912 52.8753 63.6667 52.8314 63.8442 52.8352C64.0218 52.839 64.1953 52.8904 64.3479 52.9843C64.5004 53.0783 64.6267 53.2115 64.7143 53.3711C64.802 53.5306 64.848 53.7088 64.8479 53.8922ZM58.372 36.2353H42.628C42.2667 36.2354 41.9118 36.3342 41.5993 36.5216C41.2868 36.7091 41.0278 36.9785 40.8486 37.3026L37.3349 43.6555C37.1568 43.9775 37.0638 44.3422 37.065 44.713C37.0662 45.0839 37.1616 45.4479 37.3418 45.7686C37.522 46.0894 37.7805 46.3557 38.0916 46.5408C38.4026 46.7259 38.7553 46.8234 39.1143 46.8235H61.8857C62.2447 46.8234 62.5974 46.7259 62.9084 46.5408C63.2195 46.3557 63.478 46.0894 63.6582 45.7686C63.8384 45.4479 63.9338 45.0839 63.935 44.713C63.9362 44.3422 63.8432 43.9775 63.6651 43.6555L60.1514 37.3026C59.972 36.9782 59.7127 36.7085 59.3998 36.5211C59.087 36.3336 58.7316 36.235 58.3699 36.2353H58.372Z" fill="black"/>
</svg>
