<svg width="357" height="126" viewBox="0 0 357 126" fill="none" xmlns="http://www.w3.org/2000/svg">
<path d="M29.4 31.0814C29.4 32.9481 28.95 34.6981 28.05 36.3314C27.1833 37.9647 25.8 39.2814 23.9 40.2814C22.0333 41.2814 19.6667 41.7814 16.8 41.7814H10.95V55.1814H3.95V20.2814H16.8C19.5 20.2814 21.8 20.7481 23.7 21.6814C25.6 22.6147 27.0167 23.8981 27.95 25.5314C28.9167 27.1647 29.4 29.0147 29.4 31.0814ZM16.5 36.1314C18.4333 36.1314 19.8667 35.6981 20.8 34.8314C21.7333 33.9314 22.2 32.6814 22.2 31.0814C22.2 27.6814 20.3 25.9814 16.5 25.9814H10.95V36.1314H16.5ZM41.3699 18.1814V55.1814H34.3699V18.1814H41.3699ZM46.4859 41.2314C46.4859 38.4314 47.0359 35.9481 48.1359 33.7814C49.2693 31.6147 50.7859 29.9481 52.6859 28.7814C54.6193 27.6147 56.7693 27.0314 59.1359 27.0314C61.2026 27.0314 63.0026 27.4481 64.5359 28.2814C66.1026 29.1147 67.3526 30.1647 68.2859 31.4314V27.4814H75.3359V55.1814H68.2859V51.1314C67.3859 52.4314 66.1359 53.5147 64.5359 54.3814C62.9693 55.2147 61.1526 55.6314 59.0859 55.6314C56.7526 55.6314 54.6193 55.0314 52.6859 53.8314C50.7859 52.6314 49.2693 50.9481 48.1359 48.7814C47.0359 46.5814 46.4859 44.0647 46.4859 41.2314ZM68.2859 41.3314C68.2859 39.6314 67.9526 38.1814 67.2859 36.9814C66.6193 35.7481 65.7193 34.8147 64.5859 34.1814C63.4526 33.5147 62.2359 33.1814 60.9359 33.1814C59.6359 33.1814 58.4359 33.4981 57.3359 34.1314C56.2359 34.7647 55.3359 35.6981 54.6359 36.9314C53.9693 38.1314 53.6359 39.5647 53.6359 41.2314C53.6359 42.8981 53.9693 44.3647 54.6359 45.6314C55.3359 46.8647 56.2359 47.8147 57.3359 48.4814C58.4693 49.1481 59.6693 49.4814 60.9359 49.4814C62.2359 49.4814 63.4526 49.1647 64.5859 48.5314C65.7193 47.8647 66.6193 46.9314 67.2859 45.7314C67.9526 44.4981 68.2859 43.0314 68.2859 41.3314ZM90.3227 33.2314V46.6314C90.3227 47.5647 90.5393 48.2481 90.9727 48.6814C91.4393 49.0814 92.206 49.2814 93.2727 49.2814H96.5227V55.1814H92.1227C86.2227 55.1814 83.2727 52.3147 83.2727 46.5814V33.2314H79.9727V27.4814H83.2727V20.6314H90.3227V27.4814H96.5227V33.2314H90.3227ZM105.107 24.1814C103.874 24.1814 102.841 23.7981 102.007 23.0314C101.207 22.2314 100.807 21.2481 100.807 20.0814C100.807 18.9147 101.207 17.9481 102.007 17.1814C102.841 16.3814 103.874 15.9814 105.107 15.9814C106.341 15.9814 107.357 16.3814 108.157 17.1814C108.991 17.9481 109.407 18.9147 109.407 20.0814C109.407 21.2481 108.991 22.2314 108.157 23.0314C107.357 23.7981 106.341 24.1814 105.107 24.1814ZM108.557 27.4814V55.1814H101.557V27.4814H108.557ZM130.823 27.0814C134.123 27.0814 136.79 28.1314 138.823 30.2314C140.857 32.2981 141.873 35.1981 141.873 38.9314V55.1814H134.873V39.8814C134.873 37.6814 134.323 35.9981 133.223 34.8314C132.123 33.6314 130.623 33.0314 128.723 33.0314C126.79 33.0314 125.257 33.6314 124.123 34.8314C123.023 35.9981 122.473 37.6814 122.473 39.8814V55.1814H115.473V27.4814H122.473V30.9314C123.407 29.7314 124.59 28.7981 126.023 28.1314C127.49 27.4314 129.09 27.0814 130.823 27.0814ZM174.68 27.4814V55.1814H167.63V51.6814C166.73 52.8814 165.547 53.8314 164.08 54.5314C162.647 55.1981 161.08 55.5314 159.38 55.5314C157.213 55.5314 155.297 55.0814 153.63 54.1814C151.963 53.2481 150.647 51.8981 149.68 50.1314C148.747 48.3314 148.28 46.1981 148.28 43.7314V27.4814H155.28V42.7314C155.28 44.9314 155.83 46.6314 156.93 47.8314C158.03 48.9981 159.53 49.5814 161.43 49.5814C163.363 49.5814 164.88 48.9981 165.98 47.8314C167.08 46.6314 167.63 44.9314 167.63 42.7314V27.4814H174.68ZM215.987 27.0814C219.387 27.0814 222.12 28.1314 224.187 30.2314C226.287 32.2981 227.337 35.1981 227.337 38.9314V55.1814H220.337V39.8814C220.337 37.7147 219.787 36.0647 218.687 34.9314C217.587 33.7647 216.087 33.1814 214.187 33.1814C212.287 33.1814 210.77 33.7647 209.637 34.9314C208.537 36.0647 207.987 37.7147 207.987 39.8814V55.1814H200.987V39.8814C200.987 37.7147 200.437 36.0647 199.337 34.9314C198.237 33.7647 196.737 33.1814 194.837 33.1814C192.903 33.1814 191.37 33.7647 190.237 34.9314C189.137 36.0647 188.587 37.7147 188.587 39.8814V55.1814H181.587V27.4814H188.587V30.8314C189.487 29.6647 190.637 28.7481 192.037 28.0814C193.47 27.4147 195.037 27.0814 196.737 27.0814C198.903 27.0814 200.837 27.5481 202.537 28.4814C204.237 29.3814 205.553 30.6814 206.487 32.3814C207.387 30.7814 208.687 29.4981 210.387 28.5314C212.12 27.5647 213.987 27.0814 215.987 27.0814ZM271.343 31.0814C271.343 32.9481 270.893 34.6981 269.993 36.3314C269.127 37.9647 267.743 39.2814 265.843 40.2814C263.977 41.2814 261.61 41.7814 258.743 41.7814H252.893V55.1814H245.893V20.2814H258.743C261.443 20.2814 263.743 20.7481 265.643 21.6814C267.543 22.6147 268.96 23.8981 269.893 25.5314C270.86 27.1647 271.343 29.0147 271.343 31.0814ZM258.443 36.1314C260.377 36.1314 261.81 35.6981 262.743 34.8314C263.677 33.9314 264.143 32.6814 264.143 31.0814C264.143 27.6814 262.243 25.9814 258.443 25.9814H252.893V36.1314H258.443ZM274.513 41.2314C274.513 38.4314 275.063 35.9481 276.163 33.7814C277.297 31.6147 278.813 29.9481 280.713 28.7814C282.647 27.6147 284.797 27.0314 287.163 27.0314C289.23 27.0314 291.03 27.4481 292.563 28.2814C294.13 29.1147 295.38 30.1647 296.313 31.4314V27.4814H303.363V55.1814H296.313V51.1314C295.413 52.4314 294.163 53.5147 292.563 54.3814C290.997 55.2147 289.18 55.6314 287.113 55.6314C284.78 55.6314 282.647 55.0314 280.713 53.8314C278.813 52.6314 277.297 50.9481 276.163 48.7814C275.063 46.5814 274.513 44.0647 274.513 41.2314ZM296.313 41.3314C296.313 39.6314 295.98 38.1814 295.313 36.9814C294.647 35.7481 293.747 34.8147 292.613 34.1814C291.48 33.5147 290.263 33.1814 288.963 33.1814C287.663 33.1814 286.463 33.4981 285.363 34.1314C284.263 34.7647 283.363 35.6981 282.663 36.9314C281.997 38.1314 281.663 39.5647 281.663 41.2314C281.663 42.8981 281.997 44.3647 282.663 45.6314C283.363 46.8647 284.263 47.8147 285.363 48.4814C286.497 49.1481 287.697 49.4814 288.963 49.4814C290.263 49.4814 291.48 49.1647 292.613 48.5314C293.747 47.8647 294.647 46.9314 295.313 45.7314C295.98 44.4981 296.313 43.0314 296.313 41.3314ZM317.2 31.7814C318.1 30.3147 319.267 29.1647 320.7 28.3314C322.167 27.4981 323.833 27.0814 325.7 27.0814V34.4314H323.85C321.65 34.4314 319.983 34.9481 318.85 35.9814C317.75 37.0147 317.2 38.8147 317.2 41.3814V55.1814H310.2V27.4814H317.2V31.7814ZM346.815 55.1814L337.415 43.3814V55.1814H330.415V18.1814H337.415V39.2314L346.715 27.4814H355.815L343.615 41.3814L355.915 55.1814H346.815Z" fill="black"/>
<path d="M28.5 76.4983L181.988 122.498L328.5 76.4983" stroke="black" stroke-width="5"/>
</svg>
