<svg width="100" height="100" viewBox="0 0 100 100" fill="none" xmlns="http://www.w3.org/2000/svg">
<circle cx="50" cy="50" r="50" fill="#EDEDED"/>
<path d="M49.7498 32.9013C50.6208 32.3241 51.6416 32.0111 52.6882 32.0003C53.7348 31.9895 54.762 32.2814 55.6448 32.8404L63.122 37.5732H66.2C66.6774 37.5732 67.1352 37.7618 67.4728 38.0975C67.8104 38.4332 68 38.8884 68 39.3632V55.4732C68 55.9479 67.8104 56.4032 67.4728 56.7389C67.1352 57.0746 66.6774 57.2632 66.2 57.2632H63.464C63.5217 58.1348 63.3363 59.0054 62.9282 59.7789C62.52 60.5524 61.905 61.1988 61.151 61.6469L51.9836 67.1171C51.4203 67.453 50.7754 67.6292 50.1186 67.6266C49.4618 67.6241 48.8183 67.443 48.2576 67.1028C47.6261 67.6577 46.8189 67.9747 45.9765 67.9985C45.1341 68.0224 44.3101 67.7517 43.6478 67.2335L34.3958 60.0037C33.7493 59.4988 33.296 58.7893 33.111 57.9928C32.926 57.1964 33.0205 56.361 33.3788 55.6253C32.949 55.2902 32.6015 54.8622 32.3626 54.3738C32.1237 53.8853 31.9997 53.3492 32 52.8061V39.3632C32 38.8884 32.1896 38.4332 32.5272 38.0975C32.8648 37.7618 33.3226 37.5732 33.8 37.5732H42.7046L49.7498 32.9013ZM35.9114 53.0495L37.157 51.9666C38.2215 51.0406 39.6088 50.5669 41.0208 50.6472C42.4327 50.7275 43.7567 51.3555 44.708 52.3962L49.5716 57.7161C50.3343 58.5503 50.8136 59.6022 50.9415 60.7225C51.0695 61.8428 50.8396 62.9747 50.2844 63.9578L59.2988 58.5788C59.5349 58.4381 59.7143 58.2199 59.806 57.9617C59.8976 57.7036 59.8959 57.4217 59.801 57.1647L51.8324 46.0703C51.6142 45.7663 51.3058 45.5377 50.9504 45.4167C50.595 45.2957 50.2104 45.2883 49.8506 45.3955L45.3758 46.729C44.442 47.0076 43.4497 47.0295 42.5044 46.7925C41.559 46.5555 40.6958 46.0684 40.0064 45.383L39.479 44.8603C39.0001 44.385 38.6658 43.785 38.5146 43.1292C38.3633 42.4734 38.4012 41.7885 38.624 41.1532H35.6V52.8061L35.9114 53.0495ZM53.7134 35.8619C53.4187 35.6753 53.0758 35.5779 52.7265 35.5817C52.3771 35.5855 52.0365 35.6904 51.746 35.8834L42.026 42.3274L42.5516 42.8519C42.7817 43.0804 43.0696 43.2427 43.385 43.3214C43.7003 43.4002 44.0313 43.3926 44.3426 43.2994L48.8156 41.9658C49.8949 41.644 51.0485 41.6659 52.1146 42.0287C53.1808 42.3914 54.1061 43.0767 54.761 43.9885L61.727 53.6832H64.4V41.1532H63.1238C62.4389 41.1531 61.7683 40.9587 61.1906 40.5929L53.7116 35.8602L53.7134 35.8619ZM39.5258 54.6587L36.617 57.1898L45.869 64.4196L47.138 62.2143C47.3266 61.8859 47.4057 61.5065 47.3639 61.1305C47.3222 60.7546 47.1618 60.4015 46.9058 60.1218L42.044 54.8019C41.7269 54.4552 41.2857 54.246 40.8152 54.2192C40.3447 54.1925 39.8806 54.3503 39.5258 54.6587Z" fill="black"/>
</svg>
