<svg width="21" height="28" viewBox="0 0 33 32" fill="none" xmlns="http://www.w3.org/2000/svg">
<path d="M18.0441 15.442V15.3376V8.00756L18.0337 7.83546C17.9932 7.51048 17.8344 7.21053 17.586 6.99207C17.3358 6.772 17.0122 6.65005 16.6764 6.65L18.0441 15.442ZM18.0441 15.442L18.1183 15.5153M18.0441 15.442L18.1183 15.5153M18.1183 15.5153L22.4969 19.8462L18.1183 15.5153ZM22.8942 20.7571C22.8837 20.4153 22.742 20.0897 22.4972 19.8465L22.8942 20.7571ZM22.8942 20.7571C22.9048 21.0991 22.7834 21.4327 22.5539 21.6901M22.8942 20.7571L22.5539 21.6901M22.5539 21.6901C22.3244 21.9475 22.0039 22.1095 21.6572 22.1421M22.5539 21.6901L21.6572 22.1421M21.6572 22.1421C21.3131 22.1746 20.9697 22.0771 20.6958 21.8701M21.6572 22.1421L20.6958 21.8701M20.6958 21.8701L20.556 21.748L15.7086 16.9535C15.7086 16.9535 15.7086 16.9535 15.7086 16.9535C15.4981 16.7451 15.3626 16.4748 15.3222 16.1841L15.3088 15.9913V8C15.3088 7.64285 15.4522 7.29976 15.7084 7.04637C15.9647 6.7929 16.3128 6.65001 16.6764 6.65L20.6958 21.8701ZM16.6764 0.25C25.4752 0.25 32.6028 7.30385 32.6028 16C32.6028 24.6962 25.4752 31.75 16.6764 31.75C7.87766 31.75 0.75 24.6962 0.75 16C0.75 7.30385 7.87766 0.25 16.6764 0.25ZM16.6764 2.95C13.1788 2.95 9.82387 4.32425 7.34985 6.77129C4.87573 9.21842 3.48528 12.538 3.48528 16C3.48528 19.462 4.87573 22.7816 7.34985 25.2287C9.82387 27.6758 13.1788 29.05 16.6764 29.05C20.174 29.05 23.529 27.6758 26.003 25.2287C28.4771 22.7816 29.8676 19.462 29.8676 16C29.8676 12.538 28.4771 9.21842 26.003 6.77129C23.529 4.32425 20.174 2.95 16.6764 2.95Z" fill="#1D1D1D" stroke="black" stroke-width="0.5"/>
</svg>
