<svg width="16" height="17" viewBox="0 0 22 28" fill="none" xmlns="http://www.w3.org/2000/svg">
<path d="M10.5614 14C9.10917 14 7.92101 12.74 7.92101 11.2C7.92101 9.66 9.10917 8.4 10.5614 8.4C12.0135 8.4 13.2017 9.66 13.2017 11.2C13.2017 12.74 12.0135 14 10.5614 14ZM18.4824 11.48C18.4824 6.398 14.9839 2.8 10.5614 2.8C6.13879 2.8 2.64034 6.398 2.64034 11.48C2.64034 14.756 5.21467 19.096 10.5614 24.276C15.908 19.096 18.4824 14.756 18.4824 11.48ZM10.5614 0C16.1061 0 21.1227 4.508 21.1227 11.48C21.1227 16.128 17.5979 21.63 10.5614 28C3.52485 21.63 0 16.128 0 11.48C0 4.508 5.01664 0 10.5614 0Z" fill="black"/>
</svg>
