<svg width="21" height="28" viewBox="0 0 33 30" fill="none" xmlns="http://www.w3.org/2000/svg">
<path d="M29.1826 30H3.6913C2.06378 30 0.75 28.7437 0.75 27.1875V4.6875C0.75 3.13125 2.06378 1.875 3.6913 1.875H29.1826C30.8101 1.875 32.1239 3.13125 32.1239 4.6875V27.1875C32.1239 28.7437 30.8101 30 29.1826 30ZM3.6913 3.75C3.14226 3.75 2.71087 4.1625 2.71087 4.6875V27.1875C2.71087 27.7125 3.14226 28.125 3.6913 28.125H29.1826C29.7316 28.125 30.163 27.7125 30.163 27.1875V4.6875C30.163 4.1625 29.7316 3.75 29.1826 3.75H3.6913Z" fill="black"/>
<path d="M9.5739 7.5C9.02486 7.5 8.59347 7.0875 8.59347 6.5625V0.9375C8.59347 0.4125 9.02486 0 9.5739 0C10.1229 0 10.5543 0.4125 10.5543 0.9375V6.5625C10.5543 7.0875 10.1229 7.5 9.5739 7.5ZM23.3 7.5C22.7509 7.5 22.3195 7.0875 22.3195 6.5625V0.9375C22.3195 0.4125 22.7509 0 23.3 0C23.849 0 24.2804 0.4125 24.2804 0.9375V6.5625C24.2804 7.0875 23.849 7.5 23.3 7.5ZM31.1434 11.25H1.73043C1.18139 11.25 0.75 10.8375 0.75 10.3125C0.75 9.7875 1.18139 9.375 1.73043 9.375H31.1434C31.6925 9.375 32.1239 9.7875 32.1239 10.3125C32.1239 10.8375 31.6925 11.25 31.1434 11.25Z" fill="black"/>
</svg>
